<svg xmlns="http://www.w3.org/2000/svg" width="33" height="30" fill="none" viewBox="0 0 33 30">
    <path fill="#E60000" d="M10.632 19.336h17.534c.432 0 .811-.286.93-.701L32.963 5.1a.967.967 0 0 0-.93-1.233H8.403L7.71.757A.967.967 0 0 0 6.768 0H.967a.967.967 0 1 0 0 1.934h5.025l3.49 15.708a2.905 2.905 0 0 0-1.748 2.66c0 1.6 1.302 2.901 2.9 2.901h17.532a.967.967 0 1 0 0-1.933H10.635a.968.968 0 0 1-.002-1.933zm20.12-13.535l-3.315 11.601H11.41L8.832 5.801h21.92z"/>
    <path fill="#E60000" d="M9.668 26.104c0 1.599 1.301 2.9 2.9 2.9 1.6 0 2.9-1.301 2.9-2.9 0-1.6-1.3-2.9-2.9-2.9-1.599 0-2.9 1.3-2.9 2.9zm2.9-.967a.968.968 0 0 1 0 1.933.968.968 0 0 1 0-1.933zM23.332 26.104c0 1.599 1.301 2.9 2.9 2.9 1.6 0 2.9-1.301 2.9-2.9 0-1.6-1.3-2.9-2.9-2.9-1.599 0-2.9 1.3-2.9 2.9zm2.9-.967a.968.968 0 0 1 0 1.933.968.968 0 0 1 0-1.933z"/>
</svg>
