<svg xmlns="http://www.w3.org/2000/svg" width="43" height="44" fill="none" viewBox="0 0 43 44">
    <path fill="#EE3023" d="M43 21.502c0 11.875-9.623 21.502-21.498 21.502C9.627 43.004 0 33.377 0 21.502 0 9.627 9.627 0 21.502 0 33.377 0 43 9.627 43 21.502z"/>
    <path fill="#fff" d="M21.672 33.492c-5.906.02-12.053-5.021-12.08-13.12-.02-5.352 2.871-10.508 6.561-13.565 3.603-2.979 8.537-4.895 13.009-4.91.576 0 1.18.047 1.548.173-3.91.81-7.024 4.452-7.012 8.58 0 .138.012.285.028.352 6.546 1.596 9.516 5.546 9.536 11.01.016 5.467-4.298 11.456-11.59 11.48"/>
</svg>
