<svg xmlns="http://www.w3.org/2000/svg" width="24" height="24" fill="none" viewBox="0 0 24 24">
    <path fill="#E60000" d="M23.635 21.86l-5.916-5.94a9.46 9.46 0 0 0 2.354-6.23c0-5.343-4.502-9.69-10.036-9.69S0 4.347 0 9.69c0 5.343 4.503 9.69 10.037 9.69 2.077 0 4.057-.605 5.75-1.753l5.961 5.985c.25.25.584.388.944.388.34 0 .662-.125.907-.353.52-.483.537-1.284.036-1.787zM10.037 2.528c4.09 0 7.418 3.213 7.418 7.162 0 3.95-3.328 7.162-7.418 7.162S2.618 13.64 2.618 9.69c0-3.95 3.328-7.162 7.419-7.162z"/>
</svg>
