<svg xmlns="http://www.w3.org/2000/svg" width="32" height="32" fill="none" viewBox="0 0 32 32">
    <path fill="#000" fill-opacity=".58" d="M29.2 11.853l-1.4-5.826C27.507 4.827 26.467 4 25.253 4H6.733c-1.2 0-2.253.84-2.533 2.027l-1.4 5.826a4.5 4.5 0 0 0 .827 3.84c.106.147.253.254.373.387v9.253C4 26.8 5.2 28 6.667 28h18.666C26.8 28 28 26.8 28 25.333V16.08c.12-.12.267-.24.373-.373a4.485 4.485 0 0 0 .827-3.854zM9.36 6.667l-.773 6.48c-.107.866-.8 1.52-1.614 1.52a1.535 1.535 0 0 1-1.24-.627 1.817 1.817 0 0 1-.333-1.56l1.333-5.813H9.36zm15.853-.014l1.4 5.827c.134.56.014 1.12-.333 1.56-.187.24-.587.627-1.253.627-.814 0-1.52-.654-1.614-1.52l-.773-6.48 2.573-.014zm-4.533 6.04c.067.52-.093 1.04-.44 1.427-.307.347-.733.547-1.28.547-.893 0-1.627-.787-1.627-1.747V6.667h2.614l.733 6.026zm-6.013.227c0 .96-.734 1.747-1.72 1.747-.454 0-.867-.2-1.187-.547a1.895 1.895 0 0 1-.44-1.427l.733-6.026h2.614v6.253zM24 25.333H8c-.733 0-1.333-.6-1.333-1.333v-6.707c.106.014.2.04.306.04 1.16 0 2.214-.48 2.987-1.266.8.8 1.867 1.266 3.08 1.266 1.16 0 2.2-.48 2.973-1.24a4.37 4.37 0 0 0 3.054 1.24c1.12 0 2.186-.466 2.986-1.266a4.173 4.173 0 0 0 2.987 1.266c.107 0 .2-.026.307-.04V24A1.358 1.358 0 0 1 24 25.333z"/>
</svg>
